<svg width="27" height="45" viewBox="0 0 25 43" fill="none" xmlns="http://www.w3.org/2000/svg">
  <path d="M9.61538 3.90909C8.35267 3.90909 7.10233 4.16187 5.93574 4.653C4.76914 5.14412 3.70915 5.86398 2.81628 6.77146C1.92341 7.67894 1.21515 8.75628 0.731927 9.94196C0.248709 11.1276 -4.01371e-08 12.3984 0 13.6818C4.01372e-08 14.9652 0.248709 16.236 0.731928 17.4217C1.21515 18.6074 1.92341 19.6847 2.81628 20.5922C3.70915 21.4997 4.76914 22.2195 5.93574 22.7106C7.10233 23.2018 8.35267 23.4545 9.61539 23.4545L9.61538 19.5464C8.85763 19.5464 8.1073 19.3947 7.40723 19.1C6.70715 18.8053 6.07105 18.3733 5.53524 17.8287C4.99943 17.2841 4.5744 16.6376 4.28442 15.9261C3.99444 15.2146 3.84519 14.452 3.84519 13.6818C3.84519 12.9117 3.99444 12.1491 4.28442 11.4375C4.5744 10.726 4.99943 10.0795 5.53524 9.53491C6.07105 8.99033 6.70715 8.55834 7.40723 8.26362C8.1073 7.96889 8.85763 7.8172 9.61538 7.8172V3.90909Z" fill="#FF6600"></path>
  <path d="M15.3846 39.0909C16.6473 39.0909 17.8977 38.8381 19.0643 38.347C20.2309 37.8559 21.2908 37.136 22.1837 36.2285C23.0766 35.3211 23.7849 34.2437 24.2681 33.058C24.7513 31.8724 25 30.6016 25 29.3182C25 28.0348 24.7513 26.764 24.2681 25.5783C23.7849 24.3926 23.0766 23.3153 22.1837 22.4078C21.2908 21.5003 20.2309 20.7805 19.0643 20.2894C17.8977 19.7982 16.6473 19.5455 15.3846 19.5455L15.3846 23.4536C16.1424 23.4536 16.8927 23.6053 17.5928 23.9C18.2928 24.1947 18.9289 24.6267 19.4648 25.1713C20.0006 25.7159 20.4256 26.3624 20.7156 27.0739C21.0056 27.7854 21.1548 28.548 21.1548 29.3182C21.1548 30.0883 21.0056 30.8509 20.7156 31.5625C20.4256 32.274 20.0006 32.9205 19.4648 33.4651C18.9289 34.0097 18.2928 34.4417 17.5928 34.7364C16.8927 35.0311 16.1424 35.1828 15.3846 35.1828V39.0909Z" fill="#FF6600"></path>
  <path d="M8.40602e-07 29.3182C7.30213e-07 30.6016 0.24871 31.8724 0.731928 33.058C1.21515 34.2437 1.92341 35.3211 2.81628 36.2285C3.70915 37.136 4.76915 37.8559 5.93574 38.347C7.10233 38.8381 8.35268 39.0909 9.61539 39.0909L9.61539 35.1828C8.85763 35.1828 8.1073 35.0311 7.40723 34.7364C6.70715 34.4417 6.07105 34.0097 5.53524 33.4651C4.99943 32.9205 4.5744 32.274 4.28442 31.5625C3.99444 30.8509 3.84519 30.0883 3.84519 29.3182H8.40602e-07Z" fill="#FF6600"></path>
  <path d="M15.3846 3.90909H21.1538C21.1538 3.90909 21.1538 5.86364 21.1538 7.81818C20 7.81818 15.3846 7.81818 15.3846 7.81818V3.90909Z" fill="#FF6600"></path>
  <path d="M14.4231 1.70872e-07V3.90909H10.5769V0L14.4231 1.70872e-07Z" fill="#FF6600"></path>
  <path d="M14.4231 39.0909V43H10.5769V39.0909H14.4231Z" fill="#FF6600"></path>
  <path d="M15.3846 35.1828V39.0909H9.61539L9.61539 35.1828H15.3846Z" fill="#FF6600"></path>
  <path d="M9.61538 7.8172V3.90909H15.3846V7.81818L9.61538 7.8172Z" fill="#FF6600"></path>
  <path d="M9.61538 19.5464L15.3846 19.5455L15.3846 23.4536L9.61539 23.4545L9.61538 19.5464Z" fill="#FF6600"></path>
</svg>