<svg width="45" height="45" viewBox="0 0 43 43" fill="none" xmlns="http://www.w3.org/2000/svg">
  <path fill-rule="evenodd" clip-rule="evenodd" d="M21.5 40.5C31.9934 40.5 40.5 31.9934 40.5 21.5C40.5 11.0066 31.9934 2.5 21.5 2.5C11.0066 2.5 2.5 11.0066 2.5 21.5C2.5 31.9934 11.0066 40.5 21.5 40.5ZM21.5 43C33.3741 43 43 33.3741 43 21.5C43 9.62588 33.3741 0 21.5 0C9.62588 0 0 9.62588 0 21.5C0 33.3741 9.62588 43 21.5 43Z" fill="#FF6600"></path>
  <path fill-rule="evenodd" clip-rule="evenodd" d="M25.9308 35.6924C27.479 32.1885 28.5 27.1727 28.5 21.5C28.5 15.8273 27.479 10.8115 25.9308 7.30761C25.1552 5.55229 24.2963 4.28738 23.4691 3.49554C22.6545 2.71574 21.9932 2.5 21.5 2.5C21.0068 2.5 20.3455 2.71574 19.5309 3.49554C18.7037 4.28738 17.8448 5.55229 17.0692 7.30761C15.521 10.8115 14.5 15.8273 14.5 21.5C14.5 27.1727 15.521 32.1885 17.0692 35.6924C17.8448 37.4477 18.7037 38.7126 19.5309 39.5045C20.3455 40.2843 21.0068 40.5 21.5 40.5C21.9932 40.5 22.6545 40.2843 23.4691 39.5045C24.2963 38.7126 25.1552 37.4477 25.9308 35.6924ZM21.5 43C26.7467 43 31 33.3741 31 21.5C31 9.62588 26.7467 0 21.5 0C16.2533 0 12 9.62588 12 21.5C12 33.3741 16.2533 43 21.5 43Z" fill="#FF6600"></path>
  <path fill-rule="evenodd" clip-rule="evenodd" d="M43 22.25H0.5V19.75H43V22.25Z" fill="#FF6600"></path>
</svg>