<svg width="45" height="45" viewBox="0 0 45 45" fill="none" xmlns="http://www.w3.org/2000/svg">
<path fill-rule="evenodd" clip-rule="evenodd" d="M22.5 45C34.9264 45 45 34.9264 45 22.5C45 10.0736 34.9264 0 22.5 0C10.0736 0 0 10.0736 0 22.5C0 34.9264 10.0736 45 22.5 45ZM24.7172 26.2359C25.4203 26.6422 25.7719 27.1812 25.7719 27.8531C25.7719 28.5562 25.4984 29.1266 24.9515 29.5641C24.4203 30.0016 23.6156 30.2203 22.5375 30.2203C21.3656 30.2203 20.4047 29.9547 19.6547 29.4234C18.9047 28.8766 18.514 28.0172 18.4828 26.8453H11.1C11.1 28.3297 11.5765 29.7437 12.5297 31.0875C13.4828 32.4312 14.8109 33.4937 16.514 34.275C18.2172 35.0562 20.1547 35.4469 22.3265 35.4469C25.5922 35.4469 28.2484 34.7203 30.2953 33.2672C32.3578 31.8141 33.389 29.9312 33.389 27.6187C33.389 24.2281 31.4828 21.8766 27.6703 20.5641C26.5297 20.1734 25.2015 19.8375 23.6859 19.5562C22.1859 19.275 21.0922 18.9156 20.4047 18.4781C19.7172 18.0406 19.3734 17.4703 19.3734 16.7672C19.3734 16.0797 19.6547 15.5094 20.2172 15.0562C20.7797 14.5875 21.475 14.3531 22.3031 14.3531C24.4437 14.3531 25.514 15.3687 25.514 17.4H33.4359C33.4359 14.9312 32.4203 12.9391 30.389 11.4234C28.3578 9.90781 25.6703 9.14999 22.3265 9.14999C19.2172 9.14999 16.7015 9.90781 14.7797 11.4234C12.8578 12.9234 11.8969 14.8375 11.8969 17.1656C11.8969 18.4781 12.2328 19.6422 12.9047 20.6578C13.5765 21.6734 14.5531 22.5406 15.8344 23.2594C17.1156 23.9625 18.7406 24.5328 20.7094 24.9703C22.6781 25.4078 24.014 25.8297 24.7172 26.2359Z" fill="#FF6600"/>
</svg>
