<svg width="55" height="45" viewBox="0 0 52 42" fill="none" xmlns="http://www.w3.org/2000/svg">
  <path fill-rule="evenodd" clip-rule="evenodd" d="M16.3866 0C20.8512 0 24.4706 4.23514 24.4706 9.45946C24.4706 14.6838 20.8512 18.9189 16.3866 18.9189C11.9219 18.9189 8.30252 14.6838 8.30252 9.45946C8.30252 4.23514 11.9219 0 16.3866 0ZM20.3465 3.89599C20.5511 4.13532 20.7439 4.39358 20.9227 4.66901C19.9515 5.18826 19.2269 7.22062 19.2269 9.64865C19.2269 11.9249 19.8637 13.8535 20.7436 14.5135C20.617 14.6915 20.4845 14.8615 20.3465 15.0229C19.1887 16.3777 17.7643 17.027 16.3866 17.027C15.0088 17.027 13.5844 16.3777 12.4266 15.0229C11.2691 13.6685 10.4874 11.7077 10.4874 9.45946C10.4874 7.21119 11.2691 5.2504 12.4266 3.89599C13.5844 2.54119 15.0088 1.89189 16.3866 1.89189C17.7643 1.89189 19.1887 2.54119 20.3465 3.89599Z" fill="#FF6600"></path>
  <path fill-rule="evenodd" clip-rule="evenodd" d="M14.8571 28.3784C14.8571 23.1541 11.5313 18.9189 7.42857 18.9189C3.32589 18.9189 0 23.1541 0 28.3784C0 33.6027 3.32589 37.8378 7.42857 37.8378C11.5313 37.8378 14.8571 33.6027 14.8571 28.3784ZM11.1851 33.576C10.5148 32.7622 10.0504 30.9949 10.0504 28.9459C10.0504 26.4665 10.7304 24.3997 11.6324 23.9354C11.4073 23.5029 11.1523 23.107 10.8746 22.7534C9.79967 21.3845 8.54225 20.8108 7.42857 20.8108C6.31489 20.8108 5.05747 21.3845 3.98251 22.7534C2.9154 24.1122 2.18488 26.0953 2.18488 28.3784C2.18488 30.6615 2.9154 32.6445 3.98251 34.0034C5.05747 35.3722 6.31489 35.9459 7.42857 35.9459C8.54225 35.9459 9.79967 35.3722 10.8746 34.0034C10.9817 33.8671 11.0853 33.7246 11.1851 33.576Z" fill="#FF6600"></path>
  <path fill-rule="evenodd" clip-rule="evenodd" d="M32.3361 31.5946C32.3361 26.0568 28.5212 21.5676 23.8151 21.5676C19.1091 21.5676 15.2941 26.0568 15.2941 31.5946C15.2941 37.1324 19.1091 41.6216 23.8151 41.6216C28.5212 41.6216 32.3361 37.1324 32.3361 31.5946ZM28.4647 37.0725C27.6577 36.2661 27.0873 34.2868 27.0873 31.973C27.0873 29.3525 27.8189 27.1611 28.7972 26.6165C28.5785 26.2603 28.3384 25.929 28.0806 25.6257C26.8415 24.1676 25.3082 23.4595 23.8151 23.4595C22.3221 23.4595 20.7888 24.1676 19.5496 25.6257C18.3112 27.083 17.479 29.1872 17.479 31.5946C17.479 34.002 18.3112 36.1062 19.5496 37.5635C20.7888 39.0216 22.3221 39.7297 23.8151 39.7297C25.3082 39.7297 26.8415 39.0216 28.0806 37.5635C28.2135 37.4071 28.3417 37.2433 28.4647 37.0725Z" fill="#FF6600"></path>
  <path d="M29.0588 42L48.0737 32.242C48.0737 32.242 52 30.8378 52 25.7297C52 20.6216 46.2855 20.2415 46.2855 20.2415L28.6219 21C28.6219 21 34.7395 23.4595 34.7395 31.2162C34.7395 38.973 29.0588 42 29.0588 42Z" fill="#FF6600"></path>
  <path d="M46.4901 7.56375L21.4101 0.00444756C21.7211 0.100574 26.8456 1.79916 26.8456 9.37267C26.8456 17.1832 21.8488 18.9189 21.8488 18.9189L46.8718 18.2262C46.8718 18.2262 50.6891 17.4109 50.6891 12.844C50.6891 8.27713 46.4901 7.56375 46.4901 7.56375Z" fill="#FF6600"></path>
</svg>